<svg width="23" height="19" viewBox="0 0 23 19" fill="none" xmlns="http://www.w3.org/2000/svg">
<path d="M20.0622 9.41909C19.4322 9.19909 18.7622 9.07909 18.0622 9.07909C16.4709 9.07909 14.9447 9.71123 13.8195 10.8364C12.6943 11.9617 12.0622 13.4878 12.0622 15.0791C12.0622 15.4191 12.0922 15.7491 12.1422 16.0791H2.06216C1.53173 16.0791 1.02302 15.8684 0.647951 15.4933C0.272878 15.1182 0.0621643 14.6095 0.0621643 14.0791V2.07909C0.0621643 0.969086 0.952164 0.0790863 2.06216 0.0790863H18.0622C18.5926 0.0790863 19.1013 0.2898 19.4764 0.664873C19.8515 1.03995 20.0622 1.54865 20.0622 2.07909V9.41909ZM22.5622 13.0791L17.5622 18.0791L14.0622 14.5791L15.5622 13.0791L17.5622 15.0791L21.0622 11.5791L22.5622 13.0791ZM2.06216 2.07909V4.07909L10.0622 9.07909L18.0622 4.07909V2.07909L10.0622 7.07909L2.06216 2.07909Z" fill="#149DDD"/>
</svg>
